
<svg
   width="118.12107mm"
   height="81.723961mm"
   viewBox="0 0 118.12107 81.723961"
   version="1.1"
   id="svg5"
   xmlns:inkscape="http://www.inkscape.org/namespaces/inkscape"
   xmlns:sodipodi="http://sodipodi.sourceforge.net/DTD/sodipodi-0.dtd"
   xmlns:xlink="http://www.w3.org/1999/xlink">
  <defs
     id="defs2">
    <linearGradient
       inkscape:collect="always"
       id="linearGradient9929">
      <stop
         style="stop-color:#73ace8;stop-opacity:1;"
         offset="0"
         id="stop9925" />
      <stop
         style="stop-color:#2d80e2;stop-opacity:1;"
         offset="0.50777203"
         id="stop9927" />
    </linearGradient>
    <pattern
       inkscape:collect="always"
       xlink:href="#pattern9884"
       id="pattern9889"
       patternTransform="matrix(0.28779999,0,0,0.29437693,8.6440864,67.809227)" />
    <pattern
       inkscape:collect="always"
       xlink:href="#Strips1_1.5white"
       id="pattern9041"
       patternTransform="matrix(37.795276,0,0,37.795276,-284.98479,-469.31013)" />
    <pattern
       inkscape:collect="always"
       xlink:href="#Packedcircles"
       id="pattern9039"
       patternTransform="matrix(37.795276,0,0,37.795276,-284.98479,-469.31013)" />
    <pattern
       inkscape:collect="always"
       patternUnits="userSpaceOnUse"
       width="1"
       height="1.73205080756"
       patternTransform="translate(0,0) scale(10,10)"
       id="Packedcircles"
       inkscape:stockid="Packed circles"
       inkscape:isstock="true">
      <circle
         style="fill:black;stroke:none"
         cx="0"
         cy="0.5"
         r="0.5"
         id="circle4851" />
      <circle
         style="fill:black;stroke:none"
         cx="1"
         cy="0.5"
         r="0.5"
         id="circle4853" />
      <circle
         style="fill:black;stroke:none"
         cx="0.5"
         cy="1.36602540378"
         r="0.5"
         id="circle4855" />
      <circle
         style="fill:black;stroke:none"
         cx="0.5"
         cy="-0.366025403784"
         r="0.5"
         id="circle4857" />
    </pattern>
    <pattern
       inkscape:collect="always"
       patternUnits="userSpaceOnUse"
       width="2.5"
       height="1"
       patternTransform="translate(0,0) scale(10,10)"
       id="Strips1_1.5white"
       inkscape:stockid="Stripes 1:1.5 white">
      <rect
         style="fill:white;stroke:none"
         x="0"
         y="-0.5"
         width="1"
         height="2"
         id="rect4775" />
    </pattern>
    <linearGradient
       inkscape:collect="always"
       id="linearGradient5807">
      <stop
         style="stop-color:#e8be03;stop-opacity:1;"
         offset="0"
         id="stop5801" />
      <stop
         style="stop-color:#f5ecbd;stop-opacity:1;"
         offset="0"
         id="stop5803" />
      <stop
         style="stop-color:#e8b70c;stop-opacity:1;"
         offset="0.77287066"
         id="stop5805" />
    </linearGradient>
    <linearGradient
       id="linearGradient1096"
       inkscape:swatch="gradient">
      <stop
         style="stop-color:#f50909;stop-opacity:1;"
         offset="0"
         id="stop1092" />
      <stop
         style="stop-color:#f50909;stop-opacity:0;"
         offset="0.60567826"
         id="stop1094" />
    </linearGradient>
    <linearGradient
       id="linearGradient1070"
       inkscape:swatch="gradient">
      <stop
         style="stop-color:#f50909;stop-opacity:1;"
         offset="0"
         id="stop1066" />
      <stop
         style="stop-color:#f50909;stop-opacity:0;"
         offset="1"
         id="stop1068" />
    </linearGradient>
    <rect
       x="199.46735"
       y="295.0741"
       width="72.237991"
       height="73.596573"
       id="rect450" />
    <rect
       x="150.97615"
       y="291.97894"
       width="76.691757"
       height="78.755211"
       id="rect444" />
    <rect
       x="271.70535"
       y="291.29111"
       width="83.552887"
       height="78.06739"
       id="rect438" />
    <rect
       x="95.950668"
       y="304.70358"
       width="80.474754"
       height="80.803932"
       id="rect432" />
    <rect
       x="74.284393"
       y="294.38629"
       width="71.533119"
       height="72.908752"
       id="rect426" />
    <rect
       x="149.94443"
       y="299.88885"
       width="75.316116"
       height="76.003937"
       id="rect420" />
    <rect
       x="276.84692"
       y="377.95624"
       width="87.009033"
       height="86.215767"
       id="rect414" />
    <rect
       x="264.12228"
       y="398.59305"
       width="69.469666"
       height="85.975037"
       id="rect250" />
    <rect
       x="187.08661"
       y="386.21005"
       width="51.242474"
       height="83.510445"
       id="rect244" />
    <rect
       x="119.68041"
       y="407.18851"
       width="143.06622"
       height="137.56369"
       id="rect186" />
    <radialGradient
       inkscape:collect="always"
       xlink:href="#linearGradient1070"
       id="radialGradient1102"
       cx="138.58066"
       cy="441.65228"
       fx="138.58066"
       fy="441.65228"
       r="19.871946"
       gradientTransform="matrix(1,0,0,1.4167323,0,-184.05075)"
       gradientUnits="userSpaceOnUse" />
    <radialGradient
       inkscape:collect="always"
       xlink:href="#linearGradient1070"
       id="radialGradient1104"
       cx="291.60742"
       cy="435.23883"
       fx="291.60742"
       fy="435.23883"
       r="22.791149"
       gradientTransform="matrix(1,0,0,1.3393587,0,-147.70208)"
       gradientUnits="userSpaceOnUse" />
    <radialGradient
       inkscape:collect="always"
       xlink:href="#linearGradient1070"
       id="radialGradient1106"
       cx="206.00328"
       cy="423.76266"
       fx="206.00328"
       fy="423.76266"
       r="16.571444"
       gradientTransform="matrix(1,0,0,1.5250342,0,-222.48988)"
       gradientUnits="userSpaceOnUse" />
    <radialGradient
       inkscape:collect="always"
       xlink:href="#linearGradient1070"
       id="radialGradient1108"
       cx="294.56641"
       cy="418.96146"
       fx="294.56641"
       fy="418.96146"
       r="17.632795"
       gradientTransform="matrix(1,0,0,1.5166155,0,-216.44198)"
       gradientUnits="userSpaceOnUse" />
    <radialGradient
       inkscape:collect="always"
       xlink:href="#linearGradient1070"
       id="radialGradient1110"
       cx="168.73045"
       cy="339.91016"
       fx="168.73045"
       fy="339.91016"
       r="19.018251"
       gradientTransform="matrix(1,0,0,1.4893817,0,-166.34579)"
       gradientUnits="userSpaceOnUse" />
    <radialGradient
       inkscape:collect="always"
       xlink:href="#linearGradient1070"
       id="radialGradient1112"
       cx="92.467377"
       cy="334.13077"
       fx="92.467377"
       fy="334.13077"
       r="19.96734"
       gradientTransform="matrix(1,0,0,1.4147413,0,-138.57785)"
       gradientUnits="userSpaceOnUse" />
    <radialGradient
       inkscape:collect="always"
       xlink:href="#linearGradient1070"
       id="radialGradient1114"
       cx="113.66992"
       cy="345.70758"
       fx="113.66992"
       fy="345.70758"
       r="17.786976"
       gradientTransform="matrix(1,0,0,1.5121374,0,-177.04977)"
       gradientUnits="userSpaceOnUse" />
    <radialGradient
       inkscape:collect="always"
       xlink:href="#linearGradient1070"
       id="radialGradient1116"
       cx="282.1582"
       cy="333.67047"
       fx="282.1582"
       fy="333.67047"
       r="12.614566"
       gradientTransform="matrix(1,0,0,2.1618513,0,-387.67544)"
       gradientUnits="userSpaceOnUse" />
    <radialGradient
       inkscape:collect="always"
       xlink:href="#linearGradient1070"
       id="radialGradient1118"
       cx="160.60156"
       cy="333.78104"
       fx="160.60156"
       fy="333.78104"
       r="10.850949"
       gradientTransform="matrix(1,0,0,2.419696,0,-473.86759)"
       gradientUnits="userSpaceOnUse" />
    <radialGradient
       inkscape:collect="always"
       xlink:href="#linearGradient1096"
       id="radialGradient1120"
       cx="218.18555"
       cy="330.46906"
       fx="218.18555"
       fy="330.46906"
       r="19.462749"
       gradientTransform="matrix(1,0,0,1.6294195,0,-208.00366)"
       gradientUnits="userSpaceOnUse" />
    <rect
       x="119.68041"
       y="407.18851"
       width="143.06622"
       height="137.56369"
       id="rect186-3" />
    <rect
       x="264.12228"
       y="398.59305"
       width="69.469666"
       height="85.975037"
       id="rect250-1" />
    <rect
       x="187.08661"
       y="386.21005"
       width="51.242474"
       height="83.510445"
       id="rect244-0" />
    <rect
       x="276.84692"
       y="377.95624"
       width="87.009033"
       height="86.215767"
       id="rect414-9" />
    <rect
       x="149.94443"
       y="299.88885"
       width="75.316116"
       height="76.003937"
       id="rect420-7" />
    <rect
       x="74.284393"
       y="294.38629"
       width="71.533119"
       height="72.908752"
       id="rect426-4" />
    <rect
       x="95.950668"
       y="304.70358"
       width="80.474754"
       height="80.803932"
       id="rect432-8" />
    <rect
       x="271.70535"
       y="291.29111"
       width="83.552887"
       height="78.06739"
       id="rect438-9" />
    <rect
       x="150.97615"
       y="291.97894"
       width="76.691757"
       height="78.755211"
       id="rect444-6" />
    <rect
       x="199.46735"
       y="295.0741"
       width="72.237991"
       height="73.596573"
       id="rect450-5" />
    <radialGradient
       inkscape:collect="always"
       xlink:href="#linearGradient5807"
       id="radialGradient5799"
       cx="70.113251"
       cy="111.90657"
       fx="70.113251"
       fy="111.90657"
       r="25.96328"
       gradientTransform="matrix(1,0,0,0.6280637,37.096192,76.946761)"
       gradientUnits="userSpaceOnUse" />
    <pattern
       patternUnits="userSpaceOnUse"
       width="196.25786"
       height="123.26243"
       patternTransform="translate(284.98479,468.93353)"
       id="pattern9769">
      <path
         id="path8968"
         style="fill:url(#pattern9039);fill-opacity:1;stroke:url(#pattern9041);stroke-width:1.45056;stroke-linejoin:bevel;stroke-opacity:0"
         d="m 24.969712,47.602711 a 30.506334,34.644937 62.170558 0 1 41.9605,17.06846 A 30.506334,34.644937 62.170558 0 1 44.075647,105.74999 30.506334,34.644937 62.170558 0 1 2.115151,88.681489 30.506334,34.644937 62.170558 0 1 24.969712,47.602711 Z m 23.317433,24.539717 a 27.687744,33.110784 48.353299 0 1 43.273315,-2.271874 27.687744,33.110784 48.353299 0 1 -5.372311,42.652916 27.687744,33.110784 48.353299 0 1 -43.273308,2.27187 27.687744,33.110784 48.353299 0 1 5.372304,-42.652912 z m 27.811854,12.79646 a 36.280122,33.186633 88.711357 0 1 31.978991,-37.41343 36.280122,33.186633 88.711357 0 1 34.355,35.107162 36.280122,33.186633 88.711357 0 1 -31.979,37.41343 36.280122,33.186633 88.711357 0 1 -34.354991,-35.107162 z m 42.658911,5.845266 a 32.254136,28.180347 61.49929 0 1 8.61615,-42.065462 32.254136,28.180347 61.49929 0 1 40.32545,14.108372 32.254136,28.180347 61.49929 0 1 -8.61619,42.065386 32.254136,28.180347 61.49929 0 1 -40.32541,-14.108296 z m 47.02394,-7.654791 a 31.799588,36.282421 78.445816 0 1 -41.91647,-23.88805 31.799588,36.282421 78.445816 0 1 29.17788,-38.422375 31.799588,36.282421 78.445816 0 1 41.91647,23.888013 31.799588,36.282421 78.445816 0 1 -29.17788,38.422412 z m -3.54856,-30.447534 a 31.799588,36.282421 32.04299 0 1 -46.20476,13.883339 31.799588,36.282421 32.04299 0 1 -7.7051,-47.626243 31.799588,36.282421 32.04299 0 1 46.20476,-13.8833382 31.799588,36.282421 32.04299 0 1 7.7051,47.6262422 z M 124.41904,46.299643 A 28.211799,33.703102 0 0 1 96.207211,80.002749 28.211799,33.703102 0 0 1 67.995427,46.299643 28.211799,33.703102 0 0 1 96.207249,12.596538 28.211799,33.703102 0 0 1 124.41904,46.299643 Z M 88.562917,47.50331 A 36.581557,37.314152 3.7331672e-8 0 1 51.981361,84.817451 36.581557,37.314152 3.7331672e-8 0 1 15.399801,47.50331 36.581557,37.314152 3.7331672e-8 0 1 51.981361,10.189168 36.581557,37.314152 3.7331672e-8 0 1 88.562917,47.50331 Z" />
    </pattern>
    <pattern
       patternUnits="userSpaceOnUse"
       width="53.600387"
       height="51.656629"
       patternTransform="translate(407.52024,560.72315)"
       id="pattern9884">
      <ellipse
         style="fill:#000000;fill-opacity:1;stroke:#000000;stroke-width:1.07339;stroke-linejoin:bevel;stroke-dasharray:none;stroke-dashoffset:0;stroke-opacity:0"
         id="path9880"
         ry="25.29162"
         rx="26.263498"
         cy="25.828314"
         cx="26.800194" />
    </pattern>
    <pattern
       patternUnits="userSpaceOnUse"
       width="250.54618"
       height="228.38836"
       patternTransform="translate(132.56755,307.78504)"
       id="pattern9893">
      <rect
         style="fill:url(#pattern9889);stroke:none;stroke-width:4.41468"
         width="250.54619"
         height="228.38837"
         x="0"
         y="0"
         id="rect9887"
         ry="0"
         rx="0" />
    </pattern>
    <radialGradient
       inkscape:collect="always"
       xlink:href="#linearGradient9929"
       id="radialGradient9931"
       cx="68.690216"
       cy="111.14694"
       fx="68.690216"
       fy="111.14694"
       r="58.467613"
       gradientTransform="matrix(1,0,0,0.66981848,37.096192,72.023313)"
       gradientUnits="userSpaceOnUse" />
    <rect
       x="119.68041"
       y="407.18851"
       width="143.06622"
       height="137.56369"
       id="rect10701" />
    <rect
       x="187.08661"
       y="386.21005"
       width="51.242474"
       height="83.510445"
       id="rect10703" />
    <rect
       x="264.12228"
       y="398.59305"
       width="69.469666"
       height="85.975037"
       id="rect10705" />
    <rect
       x="276.84692"
       y="377.95624"
       width="87.009033"
       height="86.215767"
       id="rect10707" />
    <rect
       x="149.94443"
       y="299.88885"
       width="75.316116"
       height="76.003937"
       id="rect10709" />
    <rect
       x="74.284393"
       y="294.38629"
       width="71.533119"
       height="72.908752"
       id="rect10711" />
    <rect
       x="95.950668"
       y="304.70358"
       width="80.474754"
       height="80.803932"
       id="rect10713" />
    <rect
       x="271.70535"
       y="291.29111"
       width="83.552887"
       height="78.06739"
       id="rect10715" />
    <rect
       x="150.97615"
       y="291.97894"
       width="76.691757"
       height="78.755211"
       id="rect10717" />
    <rect
       x="199.46735"
       y="295.0741"
       width="72.237991"
       height="73.596573"
       id="rect10719" />
  </defs>
  <g
     inkscape:label="Layer 1"
     inkscape:groupmode="layer"
     id="layer1"
     transform="translate(-46.832953,-106.80893)">
    <path
       style="fill:#000000;fill-opacity:1;stroke:#000000;stroke-width:0.401;stroke-linejoin:bevel;stroke-dasharray:none;stroke-opacity:1"
       d="m 74.023687,126.5409 c 0,0 17.401724,23.47612 20.632164,-5.00459 3.23045,-28.480705 -5.25239,39.85479 20.018399,1.27389 25.27078,-38.580885 -21.201909,27.75277 22.38389,6.1875 43.58578,-21.56525 -32.93904,12.92096 13.28523,15.55975 46.22427,2.63879 -35.21416,-5.09559 -12.375,23.5671 22.83916,28.66268 -15.55974,-23.74908 -21.20129,9.09926 -5.64154,32.84835 7.73438,-18.74448 -23.567109,-2.63878 -31.301474,16.1057 25.841929,-11.92004 -23.567104,-6.91544 -49.409002,5.00459 37.125023,-1.39646 -6.46047,-21.35356 -43.58548,-19.95711 23.795414,15.16606 10.85129,-19.77513 z"
       id="path10659-2" />
    <path
       style="fill:url(#radialGradient9931);fill-opacity:1;stroke:#ffffff;stroke-width:1.501;stroke-linejoin:bevel;stroke-dasharray:none;stroke-opacity:1"
       d="m 73.285332,123.61028 c 0,0 17.401722,23.47611 20.632163,-5.0046 3.230443,-28.480692 -5.252389,39.85479 20.018385,1.2739 25.27078,-38.58088 -21.201896,27.75276 22.38389,6.1875 43.58578,-21.56526 -32.93903,12.92096 13.28523,15.55974 46.22427,2.63879 -35.21415,-5.09558 -12.375,23.5671 22.83916,28.66268 -15.55974,-23.74908 -21.20129,9.09926 -5.64154,32.84835 7.73438,-18.74448 -23.567096,-2.63878 -31.301471,16.1057 25.841916,-11.92004 -23.567096,-6.91544 -49.409007,5.00459 37.125002,-1.39646 -6.460479,-21.35356 -43.585476,-19.95711 23.795413,15.16606 10.851293,-19.77512 z"
       id="path3778" />
    <path
       id="path3654"
       style="fill:#000000;fill-opacity:1;stroke:#000000;stroke-width:0.383795;stroke-linejoin:bevel;stroke-opacity:0"
       d="m 88.965809,145.44854 a 8.0714676,9.166473 62.170558 0 1 11.102051,4.51603 8.0714676,9.166473 62.170558 0 1 -6.046939,10.86877 8.0714676,9.166473 62.170558 0 1 -11.102048,-4.51604 8.0714676,9.166473 62.170558 0 1 6.046936,-10.86876 z m 6.169404,6.4928 a 7.3257155,8.7605616 48.353299 0 1 11.449407,-0.6011 7.3257155,8.7605616 48.353299 0 1 -1.42143,11.28525 7.3257155,8.7605616 48.353299 0 1 -11.449399,0.6011 7.3257155,8.7605616 48.353299 0 1 1.421422,-11.28525 z m 7.358557,3.38573 a 9.5991156,8.7806301 88.711357 0 1 8.46111,-9.89897 9.5991156,8.7806301 88.711357 0 1 9.08976,9.28877 9.5991156,8.7806301 88.711357 0 1 -8.46111,9.89897 9.5991156,8.7806301 88.711357 0 1 -9.08976,-9.28877 z m 11.28684,1.54656 a 8.5339069,7.4560501 61.49929 0 1 2.27969,-11.12982 8.5339069,7.4560501 61.49929 0 1 10.66944,3.73284 8.5339069,7.4560501 61.49929 0 1 -2.2797,11.1298 8.5339069,7.4560501 61.49929 0 1 -10.66943,-3.73282 z m 12.44175,-2.02533 a 8.413641,9.5997238 78.445816 0 1 -11.0904,-6.32038 8.413641,9.5997238 78.445816 0 1 7.71998,-10.16592 8.413641,9.5997238 78.445816 0 1 11.0904,6.32037 8.413641,9.5997238 78.445816 0 1 -7.71998,10.16593 z m -0.93889,-8.05591 a 8.413641,9.5997238 32.04299 0 1 -12.22501,3.6733 8.413641,9.5997238 32.04299 0 1 -2.03864,-12.60111 8.413641,9.5997238 32.04299 0 1 12.22501,-3.67329 8.413641,9.5997238 32.04299 0 1 2.03864,12.6011 z m -10.00502,-1.68862 a 7.4643717,8.9172792 0 0 1 -7.46438,8.91728 7.4643717,8.9172792 0 0 1 -7.46437,-8.91728 7.4643717,8.9172792 0 0 1 7.46437,-8.91728 7.4643717,8.9172792 0 0 1 7.46438,8.91728 z m -9.48693,0.31847 a 9.6788702,9.8727026 3.7331672e-8 0 1 -9.678879,9.8727 9.6788702,9.8727026 3.7331672e-8 0 1 -9.678871,-9.8727 9.6788702,9.8727026 3.7331672e-8 0 1 9.678871,-9.8727 9.6788702,9.8727026 3.7331672e-8 0 1 9.678879,9.8727 z" />
    <path
       style="fill:#2d80e2;fill-opacity:0;stroke:#000000;stroke-width:0.401;stroke-linejoin:bevel;stroke-dasharray:none;stroke-opacity:1"
       d="m 73.285328,123.61027 c 0,0 17.401722,23.47612 20.632163,-5.00459 3.230443,-28.480697 -5.252389,39.85479 20.018389,1.27389 25.27078,-38.580875 -21.2019,27.75277 22.38389,6.1875 43.58578,-21.56525 -32.93904,12.92096 13.28523,15.55975 46.22427,2.63879 -35.21416,-5.09559 -12.375,23.5671 22.83916,28.66268 -15.55974,-23.74908 -21.20129,9.09926 -5.64154,32.84835 7.73438,-18.74448 -23.5671,-2.63878 -31.301471,16.1057 25.84192,-11.92004 -23.567096,-6.91544 -49.409007,5.00459 37.125006,-1.39646 -6.460479,-21.35356 -43.585476,-19.95711 23.795413,15.16606 10.851293,-19.77513 z"
       id="path10659" />
    <path
       id="ellipse3633"
       style="fill:url(#radialGradient5799);fill-opacity:1;stroke:#000000;stroke-width:0.383795;stroke-linejoin:bevel;stroke-opacity:0"
       d="m 87.852735,143.5195 a 8.0714676,9.166473 62.170558 0 1 11.102049,4.51603 8.0714676,9.166473 62.170558 0 1 -6.046937,10.86877 8.0714676,9.166473 62.170558 0 1 -11.102048,-4.51604 8.0714676,9.166473 62.170558 0 1 6.046936,-10.86876 z m 6.169404,6.4928 a 7.3257155,8.7605616 48.353299 0 1 11.449401,-0.6011 7.3257155,8.7605616 48.353299 0 1 -1.42142,11.28525 7.3257155,8.7605616 48.353299 0 1 -11.449403,0.6011 7.3257155,8.7605616 48.353299 0 1 1.421422,-11.28525 z m 7.358561,3.38573 a 9.5991156,8.7806301 88.711357 0 1 8.46111,-9.89897 9.5991156,8.7806301 88.711357 0 1 9.08976,9.28877 9.5991156,8.7806301 88.711357 0 1 -8.46111,9.89897 9.5991156,8.7806301 88.711357 0 1 -9.08976,-9.28877 z m 11.28683,1.54656 a 8.5339069,7.4560501 61.49929 0 1 2.2797,-11.12982 8.5339069,7.4560501 61.49929 0 1 10.66943,3.73284 8.5339069,7.4560501 61.49929 0 1 -2.27969,11.1298 8.5339069,7.4560501 61.49929 0 1 -10.66944,-3.73282 z m 12.44175,-2.02533 a 8.413641,9.5997238 78.445816 0 1 -11.0904,-6.32038 8.413641,9.5997238 78.445816 0 1 7.71999,-10.16592 8.413641,9.5997238 78.445816 0 1 11.0904,6.32037 8.413641,9.5997238 78.445816 0 1 -7.71999,10.16593 z m -0.93889,-8.05591 a 8.413641,9.5997238 32.04299 0 1 -12.22501,3.6733 8.413641,9.5997238 32.04299 0 1 -2.03864,-12.60111 8.413641,9.5997238 32.04299 0 1 12.22501,-3.6733 8.413641,9.5997238 32.04299 0 1 2.03864,12.60111 z m -10.00502,-1.68862 a 7.4643717,8.9172792 0 0 1 -7.46437,8.91728 7.4643717,8.9172792 0 0 1 -7.464378,-8.91728 7.4643717,8.9172792 0 0 1 7.464378,-8.91727 7.4643717,8.9172792 0 0 1 7.46437,8.91727 z m -9.48693,0.31847 a 9.6788702,9.8727026 3.7331672e-8 0 1 -9.678873,9.8727 9.6788702,9.8727026 3.7331672e-8 0 1 -9.678871,-9.8727 9.6788702,9.8727026 3.7331672e-8 0 1 9.678871,-9.8727 9.6788702,9.8727026 3.7331672e-8 0 1 9.678873,9.8727 z" />
    <text
       xml:space="preserve"
       transform="matrix(0.24814422,-0.12777486,0.12135109,0.27805609,-13.519859,46.813164)"
       id="text184-0"
       style="font-size:64px;font-family:'Shaka Pow';-inkscape-font-specification:'Shaka Pow';white-space:pre;shape-inside:url(#rect186-3);fill:#000000;fill-opacity:1;stroke:#000000;stroke-width:1.37945;stroke-linejoin:bevel;stroke-dasharray:none;stroke-opacity:1"><tspan
         x="119.67969"
         y="464.95952"
         id="tspan19029">P</tspan></text>
    <text
       xml:space="preserve"
       transform="matrix(0.24278187,-0.13918263,0.13239474,0.25522932,-23.38622,74.10314)"
       id="text242-4"
       style="font-size:64px;font-family:'Shaka Pow';-inkscape-font-specification:'Shaka Pow';white-space:pre;shape-inside:url(#rect244-0);fill:#000000;fill-opacity:1;stroke:#000000;stroke-width:1.41429;stroke-linejoin:bevel;stroke-dasharray:none;stroke-opacity:1"><tspan
         x="187.08594"
         y="443.981"
         id="tspan19031">o</tspan></text>
    <text
       xml:space="preserve"
       transform="matrix(0.23341432,-0.07719217,0.07515192,0.23975112,-9.0499,65.549175)"
       id="text248-5"
       style="font-size:64px;font-family:'Shaka Pow';-inkscape-font-specification:'Shaka Pow';white-space:pre;shape-inside:url(#rect250-1);fill:#000000;fill-opacity:1;stroke:#000000;stroke-width:1.61355;stroke-linejoin:bevel;stroke-dasharray:none;stroke-opacity:1"><tspan
         x="264.12305"
         y="456.36382"
         id="tspan19033">W</tspan></text>
    <text
       xml:space="preserve"
       transform="matrix(0.26335871,-0.02542691,0.02542691,0.26335871,11.010132,45.652761)"
       id="text412-3"
       style="font-size:64px;font-family:'Shaka Pow';-inkscape-font-specification:'Shaka Pow';white-space:pre;shape-inside:url(#rect414-9);fill:#000000;fill-opacity:1;stroke:#000000;stroke-width:1.51559;stroke-linejoin:bevel;stroke-dasharray:none;stroke-opacity:1"><tspan
         x="276.84766"
         y="435.7271"
         id="tspan19035">e</tspan></text>
    <text
       xml:space="preserve"
       transform="matrix(0.22548743,-0.00431318,0.00462962,0.24203065,67.971548,63.397635)"
       id="text418-6"
       style="font-size:64px;font-family:'Shaka Pow';-inkscape-font-specification:'Shaka Pow';white-space:pre;shape-inside:url(#rect420-7);fill:#000000;fill-opacity:1;stroke:#000000;stroke-width:1.7162;stroke-linejoin:bevel;stroke-dasharray:none;stroke-opacity:1"><tspan
         x="149.94531"
         y="357.65874"
         id="tspan19037">r</tspan></text>
    <text
       xml:space="preserve"
       transform="matrix(0.2805928,0,0,0.23242338,89.595307,70.485804)"
       id="text424-3"
       style="font-size:64px;font-family:'Shaka Pow';-inkscape-font-specification:'Shaka Pow';white-space:pre;shape-inside:url(#rect426-4);fill:#000000;fill-opacity:1;stroke:#000000;stroke-width:1.57024;stroke-linejoin:bevel;stroke-dasharray:none;stroke-opacity:1"><tspan
         x="74.285156"
         y="352.15678"
         id="tspan19039">p</tspan></text>
    <text
       xml:space="preserve"
       transform="matrix(0.21497112,0.02850958,-0.02642294,0.22134071,109.16551,66.544134)"
       id="text430-2"
       style="font-size:64px;font-family:'Shaka Pow';-inkscape-font-specification:'Shaka Pow';white-space:pre;shape-inside:url(#rect432-8);fill:#000000;fill-opacity:1;stroke:#000000;stroke-width:1.82395;stroke-linejoin:bevel;stroke-dasharray:none;stroke-opacity:1"><tspan
         x="95.951172"
         y="362.47319"
         id="tspan19041">e</tspan></text>
    <text
       xml:space="preserve"
       transform="matrix(0.21222171,0.03462452,-0.03543358,0.20737605,81.890895,69.481839)"
       id="text436-5"
       style="font-size:64px;font-family:'Shaka Pow';-inkscape-font-specification:'Shaka Pow';white-space:pre;shape-inside:url(#rect438-9);fill:#000000;fill-opacity:1;stroke:#000000;stroke-width:1.88538;stroke-linejoin:bevel;stroke-dasharray:none;stroke-opacity:1"><tspan
         x="271.70508"
         y="349.06108"
         id="tspan19043">l</tspan></text>
    <text
       xml:space="preserve"
       transform="matrix(0.16959683,0.06427519,-0.0468739,0.20204203,123.82309,67.997527)"
       id="text442-3"
       style="font-size:64px;font-family:'Shaka Pow';-inkscape-font-specification:'Shaka Pow';white-space:pre;shape-inside:url(#rect444-6);fill:#000000;fill-opacity:1;stroke:#000000;stroke-width:2.0769;stroke-linejoin:bevel;stroke-dasharray:none;stroke-opacity:1"><tspan
         x="150.97656"
         y="349.74858"
         id="tspan19045">i</tspan></text>
    <text
       xml:space="preserve"
       transform="matrix(0.28603935,0.07029262,-0.0377398,0.19097615,92.430033,67.30948)"
       id="text448-0"
       style="font-size:64px;font-family:'Shaka Pow';-inkscape-font-specification:'Shaka Pow';white-space:pre;shape-inside:url(#rect450-5);fill:#000000;fill-opacity:1;stroke:#000000;stroke-width:1.6755;stroke-linejoin:bevel;stroke-dasharray:none;stroke-opacity:1"><tspan
         x="199.4668"
         y="352.84428"
         id="tspan19047">s</tspan></text>
    <text
       xml:space="preserve"
       transform="matrix(0.24814422,-0.12777486,0.12135109,0.27805609,-14.539126,45.720722)"
       id="text184"
       style="font-size:64px;font-family:'Shaka Pow';-inkscape-font-specification:'Shaka Pow';white-space:pre;shape-inside:url(#rect186);fill:#dc0808;fill-opacity:1;stroke:#ffffff;stroke-width:1.37945;stroke-linejoin:bevel;stroke-dasharray:none;stroke-opacity:1"><tspan
         x="119.67969"
         y="464.95952"
         id="tspan19049">P</tspan></text>
    <text
       xml:space="preserve"
       transform="matrix(0.24278187,-0.13918263,0.13239474,0.25522932,-24.405487,73.010698)"
       id="text242"
       style="font-size:64px;font-family:'Shaka Pow';-inkscape-font-specification:'Shaka Pow';white-space:pre;shape-inside:url(#rect244);fill:#dc0808;fill-opacity:1;stroke:#ffffff;stroke-width:1.41429;stroke-linejoin:bevel;stroke-dasharray:none;stroke-opacity:1"><tspan
         x="187.08594"
         y="443.981"
         id="tspan19051">o</tspan></text>
    <text
       xml:space="preserve"
       transform="matrix(0.23341432,-0.07719217,0.07515192,0.23975112,-10.069167,64.456733)"
       id="text248"
       style="font-size:64px;font-family:'Shaka Pow';-inkscape-font-specification:'Shaka Pow';white-space:pre;shape-inside:url(#rect250);fill:#dc0808;fill-opacity:1;stroke:#ffffff;stroke-width:1.61355;stroke-linejoin:bevel;stroke-dasharray:none;stroke-opacity:1"><tspan
         x="264.12305"
         y="456.36382"
         id="tspan19053">W</tspan></text>
    <text
       xml:space="preserve"
       transform="matrix(0.26335871,-0.02542691,0.02542691,0.26335871,9.9908648,44.560318)"
       id="text412"
       style="font-size:64px;font-family:'Shaka Pow';-inkscape-font-specification:'Shaka Pow';white-space:pre;shape-inside:url(#rect414);fill:#dc0808;fill-opacity:1;stroke:#ffffff;stroke-width:1.51559;stroke-linejoin:bevel;stroke-dasharray:none;stroke-opacity:1"><tspan
         x="276.84766"
         y="435.7271"
         id="tspan19055">e</tspan></text>
    <text
       xml:space="preserve"
       transform="matrix(0.22548743,-0.00431318,0.00462962,0.24203065,66.952281,62.305193)"
       id="text418"
       style="font-size:64px;font-family:'Shaka Pow';-inkscape-font-specification:'Shaka Pow';white-space:pre;shape-inside:url(#rect420);fill:#dc0808;fill-opacity:1;stroke:#ffffff;stroke-width:1.7162;stroke-linejoin:bevel;stroke-dasharray:none;stroke-opacity:1"><tspan
         x="149.94531"
         y="357.65874"
         id="tspan19057">r</tspan></text>
    <text
       xml:space="preserve"
       transform="matrix(0.2805928,0,0,0.23242338,88.57604,69.393362)"
       id="text424"
       style="font-size:64px;font-family:'Shaka Pow';-inkscape-font-specification:'Shaka Pow';white-space:pre;shape-inside:url(#rect426);fill:#dc0808;fill-opacity:1;stroke:#ffffff;stroke-width:1.57024;stroke-linejoin:bevel;stroke-dasharray:none;stroke-opacity:1"><tspan
         x="74.285156"
         y="352.15678"
         id="tspan19059">p</tspan></text>
    <text
       xml:space="preserve"
       transform="matrix(0.21497112,0.02850958,-0.02642294,0.22134071,108.14625,65.451692)"
       id="text430"
       style="font-size:64px;font-family:'Shaka Pow';-inkscape-font-specification:'Shaka Pow';white-space:pre;shape-inside:url(#rect432);fill:#dc0808;fill-opacity:1;stroke:#ffffff;stroke-width:1.82395;stroke-linejoin:bevel;stroke-dasharray:none;stroke-opacity:1"><tspan
         x="95.951172"
         y="362.47319"
         id="tspan19061">e</tspan></text>
    <text
       xml:space="preserve"
       transform="matrix(0.21222171,0.03462452,-0.03543358,0.20737605,80.871628,68.389397)"
       id="text436"
       style="font-size:64px;font-family:'Shaka Pow';-inkscape-font-specification:'Shaka Pow';white-space:pre;shape-inside:url(#rect438);fill:#dc0808;fill-opacity:1;stroke:#ffffff;stroke-width:1.88538;stroke-linejoin:bevel;stroke-dasharray:none;stroke-opacity:1"><tspan
         x="271.70508"
         y="349.06108"
         id="tspan19063">l</tspan></text>
    <text
       xml:space="preserve"
       transform="matrix(0.16959683,0.06427519,-0.0468739,0.20204203,122.80383,66.905085)"
       id="text442"
       style="font-size:64px;font-family:'Shaka Pow';-inkscape-font-specification:'Shaka Pow';white-space:pre;shape-inside:url(#rect444);fill:#dc0808;fill-opacity:1;stroke:#ffffff;stroke-width:2.0769;stroke-linejoin:bevel;stroke-dasharray:none;stroke-opacity:1"><tspan
         x="150.97656"
         y="349.74858"
         id="tspan19065">i</tspan></text>
    <text
       xml:space="preserve"
       transform="matrix(0.28603935,0.07029262,-0.0377398,0.19097615,91.410766,66.217038)"
       id="text448"
       style="font-size:64px;font-family:'Shaka Pow';-inkscape-font-specification:'Shaka Pow';white-space:pre;shape-inside:url(#rect450);fill:#dc0808;fill-opacity:1;stroke:#ffffff;stroke-width:1.6755;stroke-linejoin:bevel;stroke-dasharray:none;stroke-opacity:1"><tspan
         x="199.4668"
         y="352.84428"
         id="tspan19067">s</tspan></text>
  </g>
</svg>
